HIERARCHY
ROOT hip
{
	OFFSET 0.000000 0.000000 0.000000
	CHANNELS 6 Xposition Yposition Zposition Xrotation Zrotation Yrotation 
	JOINT abdomen
	{
		OFFSET 0.000000 3.422050 0.000000
		CHANNELS 3 Xrotation Zrotation Yrotation 
		JOINT chest
		{
			OFFSET 0.000000 8.486693 -0.684411
			CHANNELS 3 Xrotation Zrotation Yrotation 
			JOINT neck
			{
				OFFSET 0.000000 10.266162 -0.273764
				CHANNELS 3 Xrotation Zrotation Yrotation 
				JOINT head
				{
					OFFSET 0.000000 3.148285 0.000000
					CHANNELS 3 Xrotation Zrotation Yrotation 
					End Site
					{
						OFFSET 0.000000 3.148289 0.000000
					}
				}
			}
			JOINT lCollar
			{
				OFFSET 3.422053 6.707223 -0.821293
				CHANNELS 3 Yrotation Zrotation Xrotation 
				JOINT lShldr
				{
					OFFSET 3.285171 0.000000 0.000000
					CHANNELS 3 Zrotation Yrotation Xrotation 
					JOINT lForeArm
					{
						OFFSET 10.129278 0.000000 0.000000
						CHANNELS 3 Yrotation Zrotation Xrotation 
						JOINT lHand
						{
							OFFSET 8.486692 0.000000 0.000000
							CHANNELS 3 Zrotation Yrotation Xrotation 
							End Site
							{
								OFFSET 4.106464 0.000000 0.000000
							}
						}
					}
				}
			}
			JOINT rCollar
			{
				OFFSET -3.558935 6.707223 -0.821293
				CHANNELS 3 Yrotation Zrotation Xrotation 
				JOINT rShldr
				{
					OFFSET -3.148289 0.000000 0.000000
					CHANNELS 3 Zrotation Yrotation Xrotation 
					JOINT rForeArm
					{
						OFFSET -10.266159 0.000000 0.000000
						CHANNELS 3 Yrotation Zrotation Xrotation 
						JOINT rHand
						{
							OFFSET -8.349810 0.000000 0.000000
							CHANNELS 3 Zrotation Yrotation Xrotation 
							End Site
							{
								OFFSET -4.106464 0.000000 0.000000
							}
						}
					}
				}
			}
		}
	}
	JOINT lThigh
	{
		OFFSET 5.338403 -1.642589 1.368821
		CHANNELS 3 Xrotation Zrotation Yrotation 
		JOINT lShin
		{
			OFFSET -2.053232 -20.121670 0.000000
			CHANNELS 3 Xrotation Zrotation Yrotation 
			JOINT lFoot
			{
				OFFSET 0.000000 -19.300380 -1.231939
				CHANNELS 3 Xrotation Yrotation Zrotation 
				End Site
				{
					OFFSET 0.000000 -2.463878 4.653993
				}
			}
		}
	}
	JOINT rThigh
	{
		OFFSET -5.338403 -1.642589 1.368821
		CHANNELS 3 Xrotation Zrotation Yrotation 
		JOINT rShin
		{
			OFFSET 2.053232 -20.121670 0.000000
			CHANNELS 3 Xrotation Zrotation Yrotation 
			JOINT rFoot
			{
				OFFSET 0.000000 -19.300380 -1.231939
				CHANNELS 3 Xrotation Yrotation Zrotation 
				End Site
				{
					OFFSET 0.000000 -2.463878 4.653993
				}
			}
		}
	}
}
MOTION
Frames: 6
Frame Time: 0.049989
0.000000 38.377090 -6.103297 -9.497967 0.010323 -179.875748 -15.977020 -2.667794 -0.794830 22.353546 -3.113252 -0.221233 -23.054810 0.000000 0.000000 -27.067560 0.000000 0.000000 -26.857635 -25.039715 14.545525 -50.050377 33.848507 -9.495744 -59.485649 2.793246 -27.741425 -16.255636 -5.194238 0.114653 27.391031 27.519667 13.434288 49.330090 -33.632771 -9.273840 60.556976 -0.736172 -27.858034 16.252048 5.190772 0.113998 -49.514935 24.823462 7.756312 38.115658 -11.987438 4.864887 1.244311 0.098969 -17.303276 -49.505062 -24.841946 -7.773973 38.134792 11.987081 -4.859558 1.223549 -0.102399 17.278496 
0.000000 38.377090 -6.075962 -9.997540 0.010294 -179.882309 -15.705783 -2.666182 -0.795863 22.353546 -3.113252 -0.221233 -22.387981 0.000000 0.000000 -26.420835 0.000000 0.000000 -26.601276 -25.569683 14.639478 -49.339493 33.609146 -9.142548 -59.186356 2.997862 -27.760105 -16.255638 -5.194238 0.114653 27.118084 28.091574 13.559229 48.656574 -33.359798 -8.942710 60.169834 -0.933233 -27.870235 16.252048 5.190772 0.113998 -50.068947 24.780731 7.636725 38.115658 -11.987438 4.864887 1.244311 0.098969 -17.303276 -50.059978 -24.799450 -7.654267 38.134792 11.987081 -4.859558 1.223549 -0.102399 17.278496 
0.000000 38.377090 -6.048628 -10.497261 0.010208 -179.888885 -15.434525 -2.664565 -0.796889 22.353546 -3.113252 -0.221233 -21.720066 0.000000 0.000000 -25.772993 0.000000 0.000000 -26.342697 -26.099485 14.736529 -48.632004 33.366043 -8.793740 -58.886902 3.202413 -27.779873 -16.255638 -5.194238 0.114653 26.842121 28.663227 13.688019 47.986767 -33.083488 -8.616320 59.782528 -1.130255 -27.883766 16.252048 5.190772 0.113998 -50.622852 24.736942 7.517604 38.115658 -11.987438 4.864887 1.244311 0.098969 -17.303276 -50.614761 -24.755878 -7.535015 38.134792 11.987081 -4.859558 1.223549 -0.102399 17.278496 
0.000000 38.377090 -6.021293 -10.997123 0.010065 -179.895432 -15.163245 -2.662942 -0.797907 22.353546 -3.113252 -0.221233 -21.051113 0.000000 0.000000 -25.124071 0.000000 0.000000 -26.081825 -26.629074 14.836739 -47.927971 33.119267 -8.449371 -58.587238 3.406883 -27.800701 -16.255636 -5.194238 0.114653 26.563040 29.234552 13.820725 47.320660 -32.803898 -8.294683 59.395073 -1.327218 -27.898636 16.252048 5.190772 0.113998 -51.176620 24.692095 7.398960 38.115658 -11.987438 4.864887 1.244311 0.098969 -17.303276 -51.169434 -24.711258 -7.416245 38.134792 11.987081 -4.859558 1.223549 -0.102399 17.278496 
0.000000 38.377090 -5.993958 -11.497092 0.009865 -179.902008 -14.891944 -2.661314 -0.798917 22.353546 -3.113252 -0.221233 -20.381159 0.000000 0.000000 -24.474104 0.000000 0.000000 -25.818615 -27.158411 14.940162 -47.227436 32.868893 -8.109483 -58.287441 3.611268 -27.822626 -16.255636 -5.194238 0.114653 26.280758 29.805511 13.957442 46.658279 -32.521084 -7.977819 59.007473 -1.524112 -27.914841 16.252048 5.190772 0.113998 -51.730206 24.646191 7.280811 38.115658 -11.987438 4.864887 1.244311 0.098969 -17.303276 -51.723915 -24.665573 -7.297967 38.134792 11.987081 -4.859558 1.223549 -0.102399 17.278496 
0.000000 38.377090 -5.966624 -11.997158 0.009607 -179.908585 -14.620631 -2.659683 -0.799919 22.353546 -3.113252 -0.221233 -19.710249 0.000000 0.000000 -23.823137 0.000000 0.000000 -25.552994 -27.687449 15.046852 -46.530437 32.614967 -7.774107 -57.987438 3.815556 -27.845615 -16.255636 -5.194238 0.114653 25.995173 30.376038 14.098248 45.999641 -32.235138 -7.665746 58.619724 -1.720920 -27.932383 16.252048 5.190772 0.113998 -52.283615 24.599255 7.163180 38.115658 -11.987438 4.864887 1.244311 0.098969 -17.303276 -52.278206 -24.618845 -7.180203 38.134792 11.987081 -4.859558 1.223549 -0.102399 17.278496 
